<svg width="25" height="25" viewBox="0 0 25 25" fill="none" xmlns="http://www.w3.org/2000/svg">
<path d="M24.3721 8.0078C24.9428 8.42773 25.1969 9.37987 24.8255 10.1318C24.5245 10.8447 23.7623 11.1621 23.1603 10.6982L12.4735 3.35009L1.85858 10.6982C1.25466 11.1621 0.493216 10.8447 0.15764 10.1318C-0.177858 9.37987 0.0397091 8.42773 0.643707 8.0078L11.9028 0.196619C12.2781 -0.0655396 12.7393 -0.0655396 13.1146 0.196619L24.3721 8.0078ZM10.91 9.76562C10.91 8.68652 11.6448 7.81249 12.4735 7.81249C13.3725 7.81249 14.037 8.68652 14.037 9.76562C14.037 10.8447 13.3725 11.7187 12.4735 11.7187C11.6448 11.7187 10.91 10.8447 10.91 9.76562ZM4.03035 14.4531C4.03035 13.374 4.76521 12.5 5.59389 12.5C6.49293 12.5 7.15744 13.374 7.15744 14.4531C7.15744 15.5322 6.49293 16.4062 5.59389 16.4062C4.76521 16.4062 4.03035 15.5322 4.03035 14.4531ZM20.9166 14.4531C20.9166 15.5322 20.2521 16.4062 19.3531 16.4062C18.5244 16.4062 17.7896 15.5322 17.7896 14.4531C17.7896 13.374 18.5244 12.5 19.3531 12.5C20.2521 12.5 20.9166 13.374 20.9166 14.4531ZM8.86952 23.9941L7.78286 21.5576V23.4375C7.78286 24.3018 7.25907 25 6.53202 25H4.65577C3.99908 25 3.40493 24.3018 3.40493 23.4375V21.5576L2.3898 23.9941C2.14393 24.5605 1.57519 24.7754 1.11903 24.4678C0.662861 24.1602 0.492043 23.4521 0.737911 22.8809L2.2182 19.4482C2.81821 18.0566 3.98344 17.1875 5.24601 17.1875H6.01214C6.64929 17.1875 7.25907 17.4072 7.78677 17.8027L9.09624 14.7607C9.6982 13.3691 10.863 12.456 12.1256 12.456H12.8917C14.1543 12.456 15.3192 13.3691 15.9211 14.7607L17.2306 17.8027C17.7583 17.4072 18.3681 17.1875 19.0052 17.1875H19.7713C21.0339 17.1875 22.1988 18.0566 22.8007 19.4482L24.2783 22.8809C24.5245 23.4521 24.3525 24.1602 23.8991 24.4678C23.4418 24.7754 22.875 24.5605 22.6287 23.9941L21.5421 21.5576V23.4375C21.5421 24.3018 21.0183 25 20.2912 25H18.415C17.7583 25 17.1641 24.3018 17.1641 23.4375V21.5576L16.1478 23.9941C15.9016 24.5605 15.3348 24.7754 14.8774 24.4678C14.3888 24.1602 14.252 23.4521 14.4983 22.8809L15.9172 19.585C15.8508 19.5068 15.7921 19.4141 15.7491 19.3066L14.6625 16.8701V19.5312C14.6625 20.3955 14.1387 21.0937 13.4116 21.0937H11.5354C10.8787 21.0937 10.2845 20.3955 10.2845 19.5312V16.8701L9.26823 19.3066C9.19005 19.4141 9.1666 19.5068 9.10015 19.585L10.5191 22.8809C10.7653 23.4521 10.5933 24.1602 10.1399 24.4678C9.68257 24.7754 9.11578 24.5605 8.86952 23.9941Z" fill="#F9F3ED"/>
</svg>
