<svg width="25" height="25" viewBox="0 0 25 25" fill="none" xmlns="http://www.w3.org/2000/svg">
<path d="M3.125 19.5312C3.125 19.9609 3.47461 20.3125 3.90625 20.3125H23.4375C24.3018 20.3125 25 21.0107 25 21.875C25 22.7393 24.3018 23.4375 23.4375 23.4375H3.90625C1.74902 23.4375 0 21.6895 0 19.5312V3.125C0 2.26221 0.699707 1.5625 1.5625 1.5625C2.42529 1.5625 3.125 2.26221 3.125 3.125V19.5312ZM16.7285 13.6035C16.1182 14.2139 15.1318 14.2139 14.5215 13.6035L11.7188 10.8057L7.35352 15.166C6.74316 15.7764 5.75684 15.7764 5.14648 15.166C4.53516 14.5557 4.53516 13.5693 5.14648 12.959L10.6152 7.49023C11.2256 6.87988 12.2119 6.87988 12.8223 7.49023L15.625 10.2881L20.7715 5.14648C21.3818 4.53516 22.3682 4.53516 22.9785 5.14648C23.5889 5.75684 23.5889 6.74316 22.9785 7.35352L16.7285 13.6035Z" fill="#F9F3ED"/>
</svg>
