<svg width="25" height="25" viewBox="0 0 25 25" fill="none" xmlns="http://www.w3.org/2000/svg">
<path d="M24.9913 12.4756C24.9913 13.3545 24.3403 14.043 23.6024 14.043H22.2136L22.2439 21.8603C22.2439 21.9971 22.2352 22.124 22.2222 22.2558V23.0468C22.2222 24.126 21.4453 25 20.4861 25H19.7917C19.7439 25 19.6962 24.9561 19.6484 24.9951C19.5877 24.9561 19.5269 25 19.4662 25H17.0139C16.0547 25 15.2777 24.126 15.2777 23.0468V18.75C15.2777 17.8857 14.6571 17.1875 13.8889 17.1875H11.1111C10.3429 17.1875 9.72225 17.8857 9.72225 18.75V23.0468C9.72225 24.126 8.94533 25 7.98611 25H5.5599C5.49479 25 5.42969 24.9951 5.36458 24.9902C5.3125 24.9951 5.26042 25 5.20833 25H4.51389C3.55512 25 2.77777 24.126 2.77777 23.0468V17.5782C2.77777 17.5342 2.77908 17.4853 2.78168 17.4414V14.043H1.39106C0.608507 14.043 0 13.3545 0 12.4756C0 12.0362 0.130382 11.6455 0.434462 11.3037L11.5625 0.391406C11.8663 0.0489258 12.2136 0 12.5173 0C12.8212 0 13.1684 0.0978517 13.4332 0.342481L24.5139 11.3037C24.8611 11.6455 25.0391 12.0362 24.9913 12.4756Z" fill="#F9F3ED"/>
</svg>
