<svg width="25" height="25" viewBox="0 0 25 25" fill="none" xmlns="http://www.w3.org/2000/svg">
<path d="M6.25 5.46875C6.25 2.44824 9.04576 0 12.5 0C15.9542 0 18.75 2.44824 18.75 5.46875V7.8125H22.3214C23.8002 7.8125 25 8.8623 25 10.1562V20.3125C25 22.9004 22.6004 25 19.6429 25H5.35714C2.39844 25 0 22.9004 0 20.3125V10.1562C0 8.8623 1.19922 7.8125 2.67857 7.8125H6.25V5.46875ZM8.92857 7.8125H16.0714V5.46875C16.0714 3.74268 14.4699 2.34375 12.5 2.34375C10.5301 2.34375 8.92857 3.74268 8.92857 5.46875V7.8125ZM7.58929 12.5C8.33147 12.5 8.92857 11.9775 8.92857 11.3281C8.92857 10.6787 8.33147 10.1562 7.58929 10.1562C6.8471 10.1562 6.25 10.6787 6.25 11.3281C6.25 11.9775 6.8471 12.5 7.58929 12.5ZM17.4107 10.1562C16.6685 10.1562 16.0714 10.6787 16.0714 11.3281C16.0714 11.9775 16.6685 12.5 17.4107 12.5C18.1529 12.5 18.75 11.9775 18.75 11.3281C18.75 10.6787 18.1529 10.1562 17.4107 10.1562Z" fill="#F9F3ED"/>
</svg>
