<svg width="25" height="25" viewBox="0 0 25 25" fill="none" xmlns="http://www.w3.org/2000/svg">
<path d="M15.5452 7.33885L21.7822 8.37401C22.2987 8.45702 22.7327 8.86717 22.8977 9.4287C23.0626 9.9951 22.9281 10.6103 22.5548 11.0303L18.0322 16.0205L19.0999 23.1787C19.1867 23.7646 18.9741 24.3603 18.54 24.707C18.1104 25.0537 17.5418 25.0976 17.0774 24.8193L11.5045 21.4746L5.93587 24.8193C5.46712 25.0976 4.89855 25.0537 4.46886 24.707C4.03917 24.3603 3.82216 23.7646 3.9133 23.1787L4.98101 16.0205L0.457576 11.0303C0.083878 10.6103 -0.0489346 9.9951 0.115128 9.4287C0.278756 8.86717 0.711482 8.45702 1.23188 8.37401L7.46365 7.33885L10.2588 0.877428C10.4888 0.339537 10.9749 -0.00192261 11.5045 -0.00192261C12.0383 -0.00192261 12.5244 0.339537 12.7545 0.877428L15.5452 7.33885Z" fill="#F9F3ED"/>
</svg>
