<svg width="25" height="25" viewBox="0 0 25 25" fill="none" xmlns="http://www.w3.org/2000/svg">
<path d="M0 23.8281V8.36427C0 7.08986 0.622266 5.93751 1.57148 5.46388L12.0352 0.232092C12.332 0.0831177 12.668 0.0831177 12.9648 0.232092L23.4297 5.46388C24.3789 5.93751 25 7.08986 25 8.36427V23.8281C25 24.4776 24.582 25 24.0625 25H22.1875C21.668 25 21.25 24.4776 21.25 23.8281V10.8936C21.25 10.0733 20.6914 9.33107 20 9.33107H5C4.30859 9.33107 3.75 10.0733 3.75 10.8936V23.8281C3.75 24.4776 3.33008 25 2.8125 25H0.9375C0.419922 25 0 24.4776 0 23.8281ZM5.9375 25C5.41797 25 5 24.4776 5 23.8281V21.0938H20V23.8281C20 24.4776 19.582 25 19.0625 25H5.9375ZM5 16.4063H20V19.5313H5V16.4063ZM5 10.9375H20V14.8438H5V10.9375Z" fill="#F9F3ED"/>
</svg>
